						<svg width="201" height="141" viewBox="0 0 201 141" fill="none" xmlns="http://www.w3.org/2000/svg">
							<path d="M166.155 27.511C164.757 26.1558 163.22 24.8188 161.512 23.5934C154.548 12.888 149 7.67561 143.535 3.47734C132.366 -5.10027 125.037 4.49446 130.965 7.82651C135.632 10.4493 141.043 13.223 138.297 11.901C126.848 6.38685 116.916 7.20176 117.8 11.889C118.241 14.2129 124.375 15.882 126.851 16.4373C115.096 14.72 109.831 16.9987 110.882 20.3519C111.636 22.7362 115.953 24.7252 119.961 24.858C107.537 33.2304 104.714 46.2145 91.9628 56.8113C85.2573 62.3828 78.7311 64.2058 73.4202 64.4533H73.405C67.851 57.9431 63.6308 51.9249 61.9476 48.0194C58.7817 40.6943 55.8285 32.5996 48.3088 30.7344C43.8425 29.6237 42.2839 33.5745 42.3203 39.0403C41.7613 39.0917 41.2964 39.2395 40.9197 39.481C40.941 39.4689 40.9501 39.4599 40.9653 39.4508C40.306 36.5021 40.0204 34.2837 39.6375 31.1992C39.6375 31.1992 38.8597 25.362 34.1534 21.9726C30.8326 19.5823 25.9076 19.9052 25.1662 21.9696C24.2487 24.4958 24.042 27.2876 24.273 30.502C23.4101 30.9275 22.7751 31.7817 22.5259 33.2243C22.4834 33.499 22.453 33.7767 22.4196 34.0574C22.4196 34.0574 22.3983 34.0574 22.3892 34.0574C21.0129 33.825 14.6507 36.8431 16.0028 48.5113C16.2975 51.0949 16.7532 53.6543 17.2454 56.0356H17.2515C17.2393 57.0527 17.3153 58.1634 17.4946 59.3888C17.4946 59.3888 17.3609 59.1654 17.2363 59.0145C16.1516 57.6956 13.8334 59.6182 13.3443 61.8063C12.6029 65.1173 13.4749 72.883 16.8565 83.356C21.5993 101.317 42.4145 127.717 71.0473 136.379C114.069 149.393 145.892 133.017 160.512 110.909L160.515 110.93L161.208 109.843C167.455 99.9438 170.287 88.9607 169.187 78.9525C168.233 70.4624 164.374 63.9523 162.138 57.27C158.194 46.7276 163.797 41.974 165.404 40.4559C167.017 38.9438 168.701 37.8391 170.612 36.8673C173.121 35.5996 175.36 34.9085 175.664 33.9396C176.032 32.7686 174.464 29.5784 166.155 27.511Z" fill="#AB2328"/>
							<path d="M169.071 35.6291C161.506 39.5497 157.617 46.2259 158.911 53.2401C159.616 57.1004 166.422 70.4738 165.674 81.2306C165.188 88.1059 163.028 93.3847 160.148 97.6041C160.017 96.8103 159.85 96.0648 159.671 95.3586C159.494 94.5527 159.245 93.7378 158.935 92.9229C158.635 92.0054 157.769 90.3001 157.598 90.0104C151.643 79.2899 135.522 74.6751 128.628 73.3471C119.337 71.5634 97.2005 60.7433 97.2005 65.7625C97.2005 73.3471 100.448 77.0232 107.23 81.4901C114.023 85.96 125.529 91.3173 125.529 91.3173C119.21 92.1744 108.573 90.11 97.9145 83.4549C90.5102 78.8492 83.5769 74.5091 77.8163 70.5553C82.711 68.9165 88.2133 66.176 93.8372 61.6729C111.766 47.3155 107.85 28.4278 131.649 21.6369C135.768 20.4568 139.667 19.7053 143.325 19.7053C151.367 19.7053 158.158 22.6631 164.696 28.9982C164.957 29.2548 165.291 29.4419 165.641 29.5294C169.499 30.4832 173.434 32.2609 173.243 33.2871C173.088 34.1412 170.611 34.8293 169.071 35.6291Z" fill="url(#paint0_radial)"/>
							<path d="M77.8134 70.5558C82.708 68.9139 88.2104 66.1765 93.8372 61.6734C111.766 47.319 107.85 28.4313 131.646 21.6375C135.766 20.4574 139.667 19.7058 143.319 19.7058C151.367 19.7058 158.155 22.6636 164.696 29.0018C164.957 29.2583 165.292 29.4424 165.644 29.53C169.503 30.4867 173.431 32.2614 173.243 33.2906C173.088 34.1447 170.615 34.8329 169.071 35.6327C161.506 39.5533 157.617 46.2325 158.911 53.2436C159.616 57.1039 166.425 70.4804 165.674 81.2311C165.191 88.1034 163.034 93.3852 160.154 97.6046C160.023 96.8108 159.859 96.0653 159.677 95.3591C159.501 94.5532 159.248 93.7383 158.941 92.9264C158.638 92.0089 157.772 90.3006 157.605 90.0139C151.65 79.2964 135.529 74.6816 128.635 73.3537C119.341 71.5699 97.2067 60.7528 97.2067 65.769C97.2067 73.3537 100.452 77.0298 107.236 81.4997C114.027 85.9696 125.53 91.3238 125.53 91.3238C119.213 92.181 108.579 90.1196 97.9177 83.4645C90.5073 78.8497 83.577 74.5096 77.8134 70.5558ZM193.93 119.903L189.774 110.341C189.868 110.347 189.956 110.356 190.05 110.356C192.721 110.356 194.881 108.207 194.881 105.554C194.881 102.904 192.718 100.75 190.05 100.75C188.458 100.75 187.055 101.519 186.171 102.693C184.269 100.508 181.835 99.8652 178.554 99.8199C178.554 99.8199 174.069 99.8169 166.252 99.8139L166.394 99.3793C168.925 92.5371 169.916 85.5319 169.19 78.9493C168.236 70.4562 164.377 63.946 162.141 57.2638C158.197 46.7214 163.8 41.9678 165.407 40.4527C167.02 38.9406 168.703 37.8329 170.615 36.8641C173.124 35.5965 175.363 34.9053 175.667 33.9365C176.032 32.7654 174.464 29.5722 166.154 27.5078C164.757 26.1557 163.219 24.8186 161.512 23.5902C154.548 12.8818 149 7.67243 143.534 3.47417C132.366 -5.10345 125.037 4.49129 130.965 7.82334C135.632 10.4461 141.043 13.2198 138.296 11.8979C126.848 6.38669 116.916 7.2016 117.8 11.8858C118.241 14.2098 124.375 15.8788 126.851 16.4342C115.096 14.7168 109.831 16.9955 110.882 20.3487C111.635 22.73 115.953 24.722 119.96 24.8548C107.537 33.2302 104.714 46.2144 91.9626 56.8081C85.2571 62.3796 78.7309 64.1996 73.42 64.4531C71.9191 64.3475 70.4577 64.1875 68.814 63.8404C67.0548 62.3525 65.5843 60.943 64.4632 59.624C57.864 51.8553 52.7111 40.2625 43.6783 39.0643C32.6433 37.6035 47.5035 61.6341 52.9116 68.5367C60.8658 78.6868 64.7609 81.7049 68.7745 85.6255C77.4275 94.0643 80.241 94.9577 79.3507 96.1106C77.543 98.4587 64.0895 84.385 60.085 80.3377C55.5185 75.729 45.8962 63.1885 43.7634 58.8846C39.3366 49.9629 38.6074 48.0434 36.9698 42.502C36.9698 42.502 35.4294 37.4375 33.9923 35.0532C32.5491 32.6628 30.9175 30.4082 26.4118 30.4082C24.7832 30.4082 23.5102 31.2563 23.1274 33.4626C21.7966 41.0956 25.9469 50.6993 31.2578 65.434C34.5331 74.5096 40.6005 81.5661 44.7326 86.1054C50.3078 92.2172 56.7854 97.2786 55.5671 98.3742C53.6074 100.155 39.3882 84.6959 34.9493 77.6636C27.9917 66.6503 23.6014 49.9871 23.2428 48.8552C22.4954 46.483 15.237 49.9569 18.8434 63.1161C22.5501 76.6616 29.0642 86.9143 33.0109 92.4466C36.2771 97.0221 37.0275 98.0784 37.6048 99.3702L37.6109 99.3823H35.4172C33.7857 97.8219 31.0026 94.345 28.0585 89.86C21.9455 80.5399 19.4602 71.3798 19.1108 70.6615C18.2266 68.8445 14.0308 72.6655 16.8564 83.3528C18.1476 88.2453 20.6512 93.7655 24.1665 99.3823L24.3397 99.7354C12.9735 99.7294 5.73323 99.7264 4.90986 99.7264C0.796029 99.7264 0 102.883 0 102.883C0.0607656 102.883 4.01053 104.35 4.01053 108.865C4.01053 113.052 4.03483 120.307 4.03483 125.915C4.03483 126.679 3.96192 127.973 5.35041 129.356C6.50496 130.503 8.6196 130.484 9.90175 130.484C18.5821 130.484 36.116 130.484 57.065 130.484C61.4705 132.878 66.1433 134.894 71.0471 136.379C99.4915 144.984 123.032 140.737 139.952 130.487C170.268 130.487 193.8 130.49 194.435 130.49C199.293 130.49 200.186 127.838 200.186 127.838C200.186 127.838 197.509 127.442 193.93 119.903Z" fill="url(#paint1_radial)"/>
							<path d="M129.021 103.052V126.274H124.308V111.551L115.394 124.363C113.981 126.228 112.034 126.678 110.329 126.678V103.055H115.06V116.736L123.029 105.162C124.691 102.928 126.131 103.052 129.021 103.052ZM145.95 111.654H136.68V103.049H131.965V124.538C131.965 125.875 132.612 126.319 133.94 126.319H136.68V116.658H145.95V124.538C145.95 125.875 146.397 126.319 147.727 126.319H150.705V103.052H145.95V111.654ZM34.6851 116.658H43.8334V111.654H34.6851V107.914H46.2913V105.092C46.2913 103.725 45.8964 103.058 44.7752 103.058L29.8968 103.052L29.8147 124.541C29.8147 125.878 30.4133 126.322 31.6407 126.322H31.7228V126.334H44.76C45.9632 126.334 46.3582 125.664 46.3582 124.3V121.478H34.6851V116.658ZM75.0729 116.658H84.2212V111.654H75.0729V107.914H86.6792V105.092C86.6792 103.725 86.2812 103.058 85.1631 103.058L70.2846 103.052L70.2056 124.541C70.2056 125.878 70.8011 126.322 72.0286 126.322H72.1106V126.334H85.1479C86.348 126.334 86.746 125.664 86.746 124.3V121.478H75.076V116.658H75.0729ZM48.8253 107.099C48.8253 108.029 49.8461 108.077 49.8461 108.077H50.5176H55.713V124.324C55.713 125.661 56.1475 126.105 57.4449 126.105H60.6168V108.074H66.5172C67.1673 108.074 67.5502 107.718 67.5502 107.042V103.049H48.8404L48.8253 107.099ZM89.605 114.388C89.605 117.298 90.2127 127.412 87.3233 128.205C94.8066 128.456 94.366 121.418 94.366 121.418C94.366 121.418 94.1989 116.93 94.3204 114.268C94.5969 108.144 98.8353 107.963 102.548 108.068C102.609 108.068 102.74 108.068 102.74 108.068V126.352L107.485 126.398V103.112C107.485 103.112 103.432 103.052 103.256 103.052C92.1785 103.049 89.605 107.597 89.605 114.388ZM195.535 127.895C195.535 127.895 188.568 129.44 185.478 122.709L185.481 122.697H175.865L173.796 127.224C170.557 127.27 168.309 128.211 162.779 121.457C159.485 117.431 158.373 116.181 158.373 116.181V126.337H155.402C154.071 126.337 153.628 125.896 153.628 124.556V103.067H158.373V113.555L165.468 103.076L171.256 103.055L163.636 114.6L170.171 122.694L178.265 103.109C181.167 103.109 182.743 102.765 183.789 104.836L190.625 121.568C193.538 127.581 195.535 127.895 195.535 127.895ZM183.807 117.645L180.48 109.849L177.332 117.645H183.807ZM21.4504 103.034H9.0876C6.78155 103.034 6.29846 103.339 6.29846 103.339C6.29846 103.339 7.60796 103.879 7.60796 105.862V124.131C7.60796 124.131 7.59277 125.278 7.97863 125.658C8.5559 126.231 9.13318 126.262 9.13318 126.262H12.5057V108.162H21.42V124.134C21.42 124.134 21.4139 125.232 21.9183 125.734C22.5229 126.337 23.3159 126.262 23.3159 126.262H26.26V110.428C26.263 106.179 26.743 103.034 21.4504 103.034Z" fill="white"/>
							<path d="M153.394 27.9812C155.238 27.9812 156.845 29.282 157.237 31.0778C157.459 32.095 157.264 33.1392 156.696 34.0145C156.122 34.8958 155.241 35.4934 154.211 35.7137C153.941 35.7711 153.661 35.7982 153.388 35.7982C151.549 35.7982 149.927 34.4974 149.547 32.7137C149.098 30.5979 150.45 28.5184 152.57 28.0687C152.841 28.0084 153.12 27.9812 153.394 27.9812Z" fill="#AB2328"/>
							<path d="M154.223 32.5356C152.71 34.0869 150.021 32.8615 151.224 34.0537C152.421 35.2398 154.357 35.2398 155.557 34.0537C156.757 32.8615 156.757 30.9329 155.557 29.7377C154.357 28.5516 155.66 31.0567 154.223 32.5356Z" fill="white"/>
							<path d="M191.472 106.743V106.52C191.472 106.287 191.439 106.112 191.375 106.001C191.311 105.886 191.205 105.801 191.047 105.738C191.232 105.675 191.366 105.566 191.445 105.415C191.524 105.258 191.566 105.107 191.566 104.95C191.566 104.82 191.548 104.703 191.503 104.6C191.46 104.498 191.405 104.404 191.336 104.319C191.25 104.217 191.144 104.138 191.023 104.087C190.898 104.033 190.722 104.006 190.494 104.003H188.89V107.329H189.573V106.025H190.257C190.454 106.025 190.585 106.061 190.655 106.13C190.725 106.203 190.761 106.342 190.764 106.553L190.77 106.864C190.773 106.96 190.783 107.054 190.798 107.151C190.807 107.196 190.822 107.253 190.843 107.329H191.615V107.247C191.548 107.205 191.506 107.141 191.487 107.054C191.478 107 191.472 106.897 191.472 106.743ZM190.664 105.418C190.588 105.454 190.476 105.469 190.327 105.469H189.573V104.576H190.345C190.491 104.576 190.597 104.597 190.667 104.636C190.795 104.706 190.862 104.842 190.862 105.041C190.865 105.228 190.798 105.352 190.664 105.418ZM190.202 102.4C188.382 102.4 186.903 103.87 186.903 105.681C186.903 107.489 188.379 108.961 190.202 108.961C192.025 108.961 193.505 107.489 193.505 105.681C193.502 103.87 192.022 102.4 190.202 102.4ZM190.202 108.358C188.717 108.358 187.507 107.157 187.507 105.678C187.507 104.202 188.717 102.998 190.202 102.998C191.691 102.998 192.9 104.199 192.9 105.678C192.9 107.157 191.691 108.358 190.202 108.358Z" fill="white"/>
							<defs>
							<radialGradient id="paint0_radial" cx="0" cy="0" r="1" gradientUnits="userSpaceOnUse" gradientTransform="translate(104.15 71.1615) scale(80.0707 80.6065)">
							<stop offset="0.065" stop-color="#F8F6E3"/>
							<stop offset="0.114" stop-color="#F8F5DA"/>
							<stop offset="0.194" stop-color="#F9F1C2"/>
							<stop offset="0.2949" stop-color="#FAEC9A"/>
							<stop offset="0.4129" stop-color="#FCE463"/>
							<stop offset="0.5437" stop-color="#FEDA1D"/>
							<stop offset="0.5953" stop-color="#FFD600"/>
							</radialGradient>
							<radialGradient id="paint1_radial" cx="0" cy="0" r="1" gradientUnits="userSpaceOnUse" gradientTransform="translate(9.00908 27.6056) rotate(-90) scale(175.8 174.694)">
							<stop offset="0.0607" stop-color="#FFD600"/>
							<stop offset="0.4222" stop-color="#AE1010"/>
							</radialGradient>
							</defs>
						</svg>