<svg width="143" height="101" viewBox="0 0 143 101" fill="none" xmlns="http://www.w3.org/2000/svg">
<g clip-path="url(#clip0)">
<path d="M138.53 85.4969L135.566 78.6781C135.631 78.6827 135.7 78.6919 135.76 78.6919C137.669 78.6919 139.216 77.1572 139.216 75.2641C139.216 73.3756 137.669 71.8363 135.76 71.8363C134.625 71.8363 133.62 72.3877 132.99 73.2286C131.633 71.6709 129.892 71.2068 127.543 71.1792C127.543 71.1792 124.204 71.1792 118.618 71.1701L118.859 70.8622C120.665 65.9824 121.374 60.9878 120.855 56.2964C120.179 50.2404 117.423 45.595 115.82 40.8301C113.004 33.3129 117.006 29.9264 118.155 28.842C119.308 27.7622 120.508 26.9719 121.874 26.2827C123.666 25.3775 125.269 24.8859 125.487 24.1966C125.751 23.3604 124.63 21.0813 118.692 19.6109C117.696 18.646 116.598 17.6903 115.38 16.8127C110.401 9.18056 106.436 5.46331 102.531 2.47204C100.183 0.680042 98.0707 0 96.3708 0C92.2901 0 90.5671 3.90105 93.55 5.57818C96.8896 7.4483 100.753 9.42409 98.7886 8.48214C90.6134 4.55352 83.5173 5.13707 84.1473 8.47755C84.4622 10.1317 88.844 11.3218 90.6134 11.7169C82.2158 10.4947 78.4501 12.1167 79.2051 14.5106C79.7424 16.2107 82.8272 17.6259 85.6851 17.7224C76.8104 23.7004 74.7909 32.9545 65.6892 40.513C61.3306 44.1292 57.074 45.5306 53.4842 45.889C53.3268 45.9028 53.1646 45.9166 53.0072 45.9304C52.9747 45.935 52.9423 45.935 52.9145 45.9396C52.757 45.9488 52.5996 45.9626 52.4421 45.9672C52.4374 45.9672 52.4328 45.9672 52.4328 45.9672C48.4587 41.3217 45.4479 37.0301 44.2483 34.2456C41.9879 29.0166 39.8758 23.2455 34.5074 21.9176C31.3207 21.1318 30.1998 23.9347 30.2276 27.8266C29.8385 27.8633 29.5189 27.9644 29.2595 28.1206C28.7917 26.0254 28.5833 24.4447 28.3192 22.2484C28.3192 22.2484 27.7634 18.0854 24.396 15.6685C22.0245 13.9638 18.9351 14.3682 18.407 15.8339C17.7493 17.6305 17.6057 19.6247 17.7725 21.913C17.4668 22.0646 17.1981 22.2898 16.9897 22.6068C16.985 22.6114 16.9804 22.616 16.9804 22.6252C16.9295 22.7033 16.8831 22.7814 16.8368 22.8687C16.8276 22.8825 16.8229 22.9009 16.8137 22.9147C16.7812 22.979 16.7534 23.0479 16.721 23.1214C16.7071 23.1582 16.6932 23.1995 16.6793 23.2409C16.6608 23.296 16.6423 23.3558 16.6238 23.4155C16.6099 23.4568 16.6006 23.4982 16.5867 23.5442C16.5635 23.6452 16.5404 23.7509 16.5172 23.8612V23.8658C16.4848 24.0588 16.457 24.2564 16.4338 24.4539C16.4292 24.4539 16.4246 24.4539 16.4199 24.4539C15.438 24.2931 10.8941 26.4435 11.8575 34.7602C12.0706 36.6074 12.3948 38.427 12.7515 40.1271H12.7561C12.7561 40.3063 12.7561 40.4855 12.7608 40.6739C12.7608 40.6876 12.7608 40.7014 12.7608 40.7152C12.7654 40.8852 12.7747 41.0552 12.7886 41.2344C12.7932 41.3079 12.8025 41.3815 12.8071 41.4596C12.8163 41.5928 12.8302 41.7261 12.8441 41.8639C12.8673 42.0753 12.8951 42.2958 12.9275 42.5164C12.9275 42.5164 12.8302 42.3556 12.7422 42.2499C11.9641 41.3125 10.3105 42.6818 9.95848 44.2441C9.43044 46.6058 9.62498 51.9727 12.0428 59.4393C12.1123 59.6966 12.1864 59.954 12.2605 60.2159C12.2837 60.294 12.3068 60.3767 12.33 60.4548C12.3856 60.634 12.4412 60.8178 12.5014 60.997C12.5338 61.0981 12.5662 61.1992 12.6033 61.3003C12.6542 61.4565 12.7098 61.6127 12.7654 61.7735C12.8071 61.893 12.8488 62.0125 12.8905 62.1319V62.1365C13.0526 62.5868 13.2332 63.0417 13.4231 63.5058C13.4278 63.5196 13.4324 63.5288 13.437 63.5426C14.4329 65.9732 15.7669 68.5326 17.4065 71.1195C9.3517 71.1149 4.08989 71.1149 3.50164 71.1149C0.560397 71.1149 -0.00469208 73.371 -0.00469208 73.371C0.0369948 73.371 2.85781 74.414 2.85781 77.6305C2.85781 80.6171 2.8717 85.791 2.8717 89.7885C2.8717 90.3353 2.82539 91.2543 3.81198 92.2422C4.64108 93.0601 6.15107 93.0463 7.06819 93.0463H40.7605C43.9055 94.7556 47.2451 96.1892 50.7468 97.2552C71.0715 103.389 87.8852 100.361 99.9698 93.0555H138.887C142.361 93.0555 142.995 91.1624 142.995 91.1624C142.995 91.1624 141.087 90.8729 138.53 85.4969Z" fill="#AB2328"/>
<path d="M19.6067 74.368L61.5993 69.7548C61.9143 69.741 54.4245 47.9842 54.7349 47.9567L53.4704 45.8844C53.1184 45.9211 52.771 45.9441 52.4282 45.9625H52.4189C48.4448 41.3171 45.4341 37.0254 44.2298 34.241C41.9694 29.0166 39.8573 23.25 34.4889 21.9175C31.2976 21.1318 30.1813 23.9392 30.2091 27.8403C29.8107 27.877 29.5328 28.0287 29.2642 28.1987C29.2781 28.1895 29.2364 28.139 29.241 28.1298C28.7732 26.0299 28.5648 24.4493 28.2961 22.2483C28.2961 22.2483 27.7403 18.0854 24.3729 15.6685C22.0014 13.9638 18.9119 14.3681 18.3839 15.8339C17.7262 17.6351 17.5826 19.6292 17.7493 21.9175C17.1287 22.2208 16.6747 22.8319 16.4941 23.8565C16.4617 24.0495 16.4478 24.2471 16.42 24.4493C16.4107 24.4447 16.4061 24.4447 16.3968 24.4447C15.4149 24.2839 10.871 26.4343 11.8344 34.751C12.0475 36.5981 12.3717 38.4177 12.7284 40.1178H12.733C12.7237 40.8438 12.7747 41.6387 12.9044 42.5071C12.9044 42.5071 12.8071 42.3463 12.7191 42.2406C11.941 41.3033 10.2874 42.6726 9.93536 44.2348C9.40732 46.5966 9.60186 51.9634 12.0197 59.4301C13.2147 63.9376 15.8317 69.1896 19.6067 74.368Z" fill="#AB2328"/>
<path d="M120.772 25.405C115.366 28.2033 112.587 32.9636 113.513 37.9628C114.014 40.7151 118.882 50.2541 118.344 57.9184C117.997 62.8211 116.455 66.5843 114.393 69.5985C114.301 69.0334 114.185 68.5004 114.055 67.9949C113.935 67.4206 113.754 66.837 113.532 66.2581C113.314 65.601 112.698 64.3834 112.578 64.1812C108.316 56.5353 96.8063 53.2454 91.8826 52.3034C85.2451 51.0306 69.4365 43.3158 69.4365 46.8953C69.4365 52.3034 71.7524 54.9271 76.5974 58.1113C81.4423 61.2956 89.6639 65.1185 89.6639 65.1185C85.1525 65.7297 77.5562 64.2547 69.9414 59.5128C64.6518 56.2274 59.7003 53.1305 55.5779 50.3138C59.075 49.1467 63.0074 47.1939 67.0279 43.9775C79.8351 33.7447 77.0374 20.2771 94.0364 15.4295C96.9776 14.5887 99.766 14.0557 102.374 14.0557C108.122 14.0557 112.972 16.1647 117.645 20.6861C117.83 20.8699 118.071 20.9985 118.321 21.0629C121.077 21.7429 123.884 23.0065 123.75 23.7417C123.639 24.3436 121.874 24.8352 120.772 25.405Z" fill="white"/>
<path d="M109.572 25.5245C108.256 25.5245 107.098 24.5964 106.83 23.3282C106.505 21.821 107.473 20.3323 108.983 20.0153C109.178 19.9693 109.373 19.9509 109.572 19.9509C110.892 19.9509 112.041 20.8791 112.314 22.1565C112.471 22.8825 112.337 23.6268 111.929 24.2517C111.517 24.8766 110.892 25.304 110.151 25.4602C109.965 25.5061 109.766 25.5245 109.572 25.5245Z" fill="#AB2328"/>
<path d="M110.165 23.1996C109.081 24.307 107.168 23.434 108.025 24.2794C108.877 25.1249 110.257 25.1249 111.119 24.2794C111.976 23.434 111.976 22.0555 111.119 21.2008C110.257 20.3554 111.198 22.1474 110.165 23.1996Z" fill="white"/>
<path d="M114.055 67.9949C113.93 67.4206 113.754 66.837 113.532 66.2626C113.314 65.6056 112.698 64.3879 112.578 64.1858C108.316 56.5399 96.8063 53.25 91.8826 52.308C85.2451 51.0352 69.4365 43.3204 69.4365 46.8998C69.4365 52.308 71.7524 54.9317 76.5974 58.1159C81.4423 61.3002 89.6639 65.1231 89.6639 65.1231C85.1525 65.7342 77.5562 64.2593 69.9414 59.5174C64.6518 56.232 57.5835 51.6831 55.5779 50.3184C53.5723 48.9491 46.8468 43.4675 46.0409 42.5255C41.3303 36.9887 37.6479 28.7271 31.1957 27.8679C23.3122 26.8294 33.9285 43.9637 37.7915 48.8848C43.4702 56.1217 46.2539 58.2722 49.1211 61.0658C55.3 67.0851 57.3102 67.7238 56.6757 68.5417C55.3787 70.2188 45.7722 60.1836 42.9144 57.2934C39.6535 54.0081 32.7752 45.0711 31.2513 41.9925C28.0923 35.6378 27.5736 34.2639 26.4017 30.3123C26.4017 30.3123 25.304 26.7008 24.271 25.0006C23.2381 23.3005 22.0709 21.6877 18.861 21.6877C17.6891 21.6877 16.7859 22.2943 16.508 23.8657C15.5585 29.306 18.5229 36.1524 22.321 46.6609C24.6601 53.1351 28.9956 58.1665 31.9507 61.3967C35.9341 65.7572 40.5614 69.3642 39.6906 70.1453C38.2917 71.4135 28.134 60.395 24.9612 55.3774C19.9958 47.5247 16.86 35.6424 16.6007 34.8337C16.068 33.1428 10.8849 35.6194 13.4602 45.0021C16.1097 54.6606 20.7647 61.9756 23.5809 65.9134C25.9154 69.1758 26.448 69.9294 26.8603 70.8529C26.8603 70.8529 26.8603 70.8575 26.8649 70.8621H25.2947C24.1321 69.7456 22.145 67.2643 20.0329 64.0709C15.6697 57.4221 13.891 50.8974 13.6409 50.3782C13.0063 49.087 10.0141 51.8118 12.0336 59.4347C12.9554 62.9222 14.7433 66.86 17.2538 70.8667L17.5224 71.1148C20.899 76.0176 40.7559 93.037 40.7559 93.037C43.9056 94.7463 47.2405 96.1799 50.7422 97.2459C71.0623 103.38 87.8806 100.352 99.9652 93.0462L114.389 69.6031C114.306 69.0288 114.19 68.4958 114.055 67.9949Z" fill="white"/>
<path d="M41.0292 92.6558C44.2483 94.4018 47.5648 95.7941 50.8858 96.8004C60.4599 99.6905 69.7144 100.674 78.3992 99.7227C86.1622 98.8727 93.3046 96.5109 99.6363 92.7063L113.912 69.5022C113.833 69.0381 113.731 68.5694 113.611 68.1054C113.611 68.1008 113.606 68.0916 113.606 68.087C113.49 67.554 113.324 66.9934 113.101 66.4236C112.893 65.7941 112.3 64.6224 112.179 64.4111C107.575 56.1541 94.393 53.2547 91.7946 52.7539C89.3721 52.2898 85.7129 50.9665 82.1695 49.6891C77.306 47.9339 71.2476 45.7467 70.0386 46.583C69.9692 46.6335 69.8997 46.7024 69.8997 46.8908C69.8997 52.1841 72.2434 54.6929 76.8521 57.7209C81.6137 60.8501 89.7751 64.6592 89.8584 64.696C90.0437 64.7833 90.1502 64.9808 90.1225 65.183C90.09 65.3852 89.9279 65.5414 89.7241 65.569C85.5786 66.1296 77.848 64.9809 69.6912 59.8943C64.5499 56.7009 57.3658 52.083 55.3139 50.6862C53.4333 49.3996 46.5643 43.8352 45.6888 42.8106C44.4012 41.2989 43.1784 39.5712 41.9972 37.8986C38.8753 33.4784 35.6423 28.9111 31.1355 28.3137C29.5653 28.107 29.204 28.7365 29.0836 28.9432C27.3049 32.0218 34.6418 44.1109 38.162 48.5909C42.7244 54.408 45.4109 56.9214 47.7778 59.1408C48.3522 59.6784 48.8987 60.1884 49.4546 60.7306C52.141 63.3497 54.0262 64.9349 55.2722 65.9825C56.9767 67.4161 57.6808 68.0089 57.0508 68.8222C56.9304 68.9784 56.7081 69.1668 56.3236 69.1898C56.3005 69.1898 56.2773 69.1898 56.2542 69.1898C54.3551 69.1898 49.7371 64.889 43.3961 58.4377C43.0904 58.1253 42.8171 57.8496 42.5901 57.6153C39.4312 54.4356 32.4556 45.4526 30.8437 42.1949C27.6847 35.8355 27.1335 34.3882 25.9663 30.4412C25.957 30.409 24.8732 26.8663 23.8866 25.2352C22.8259 23.4845 21.7791 22.1474 18.8749 22.1474C17.8142 22.1474 17.1935 22.7355 16.9805 23.944C16.1791 28.5481 18.3376 34.4203 21.3252 42.5487C21.7883 43.8077 22.2747 45.1264 22.7703 46.5048C24.9519 52.5471 28.8149 57.266 32.3027 61.089C33.7015 62.6191 35.1745 64.0527 36.4714 65.3163C39.0467 67.8205 40.2834 69.0611 40.2649 69.9157C40.2603 70.1455 40.1723 70.3431 40.0055 70.4901C39.8712 70.6142 39.6211 70.752 39.2181 70.6969C37.6108 70.4809 34.0072 66.8831 32.0063 64.7557C28.9446 61.5071 26.0219 57.9185 24.5721 55.6211C21.5799 50.893 18.7128 43.9041 16.2857 35.4082C16.2208 35.1877 16.1791 35.0406 16.1606 34.9717C16.0865 34.742 15.7947 34.7925 15.6279 34.8385C14.2754 35.229 12.0799 38.2019 13.9095 44.8783C15.892 52.106 19.2732 59.0902 23.9607 65.6425C26.3137 68.9324 26.8464 69.686 27.2725 70.628C27.3327 70.7336 27.3512 70.8577 27.3188 70.9772C27.2632 71.1793 27.078 71.3172 26.8695 71.3172H25.2993C25.1789 71.3172 25.0631 71.2712 24.9751 71.1885C23.6457 69.9157 21.6077 67.2829 19.6484 64.3146C15.9475 58.6767 14.0624 53.048 13.4463 51.1962C13.3491 50.9067 13.2564 50.631 13.2286 50.5713C13.2147 50.5391 13.2008 50.5254 13.1962 50.5208C13.1777 50.5208 13.0295 50.5575 12.821 50.7919C12.0799 51.6189 11.1767 54.3437 12.4922 59.3108C13.4046 62.7569 15.1787 66.6442 17.6243 70.5636L17.8466 70.7704C17.8698 70.7934 17.8929 70.8209 17.9161 70.8485C21.1491 75.5491 40.0611 91.8195 41.0292 92.6558ZM71.8821 101C65.0455 101 57.917 99.8927 50.6125 97.6872C47.2174 96.6579 43.8268 95.2289 40.5382 93.4415C40.5104 93.4277 40.4826 93.4048 40.4594 93.3864C39.6489 92.6926 20.6304 76.3624 17.175 71.4183L16.9434 71.2023C16.911 71.1747 16.8878 71.1426 16.8647 71.1058C14.3542 67.0945 12.5292 63.097 11.5936 59.5497C10.0234 53.6315 11.3713 50.2129 12.8257 49.6799C13.3305 49.4915 13.8308 49.6937 14.0716 50.1762C14.1226 50.2818 14.1874 50.4702 14.3357 50.9159C14.9471 52.7401 16.7998 58.2815 20.4358 63.8183C22.2608 66.5891 24.2247 69.1438 25.4939 70.4028H26.1145C25.6977 69.6768 24.9797 68.6659 23.2057 66.1847C18.458 59.5451 15.0304 52.4598 13.0156 45.1264C11.0702 38.0503 13.4278 34.5168 15.3686 33.9562C16.1652 33.7265 16.8369 34.0252 17.0499 34.696C17.0731 34.7695 17.1148 34.9258 17.1843 35.1555C19.5882 43.5687 22.4183 50.4748 25.3642 55.1294C26.8371 57.459 29.9127 61.2131 33.016 64.4662C37.0133 68.6567 38.8105 69.6906 39.3154 69.7779C39.093 69.1484 37.2912 67.3932 35.8229 65.9688C34.5121 64.696 33.0299 63.2532 31.6126 61.7047C28.0599 57.8174 24.1274 53.0066 21.8902 46.8127C21.39 45.4342 20.9083 44.1201 20.4451 42.8611C17.4066 34.5995 15.2111 28.6308 16.0587 23.7832C16.3505 22.129 17.3464 21.2192 18.8703 21.2192C22.2515 21.2192 23.5485 22.8918 24.6786 24.7527C25.7254 26.485 26.8093 30.023 26.8556 30.1701C28.0229 34.1171 28.5277 35.4404 31.6774 41.7767C33.1133 44.6715 39.9268 53.6085 43.2525 56.9582C43.4841 57.1925 43.7573 57.4682 44.0631 57.7807C45.7444 59.49 48.556 62.3526 51.1174 64.65C55.5084 68.5924 56.2866 68.2616 56.319 68.2478C56.3236 68.2432 56.3236 68.2386 56.3283 68.234C56.2542 68.0089 55.5177 67.3886 54.6701 66.6764C53.4148 65.6195 51.5157 64.0251 48.8015 61.3785C48.2549 60.8455 47.713 60.34 47.1386 59.8024C44.7486 57.5601 42.0343 55.0238 37.4302 49.1515C34.7483 45.7421 25.9941 32.4353 28.2776 28.4791C28.8056 27.5694 29.8108 27.2018 31.2605 27.3948C36.175 28.0472 39.5238 32.7845 42.7615 37.3656C43.9334 39.0198 45.1423 40.7337 46.4022 42.2132C47.1571 43.0954 53.8641 48.5725 55.8466 49.9234C57.8938 51.3203 65.0547 55.9243 70.1915 59.1132C77.1161 63.4278 83.6888 64.8384 87.8899 64.7741C85.2497 63.4921 79.8814 60.8133 76.3426 58.4883C73.5728 56.6687 71.9238 55.2075 70.8168 53.5901C69.5569 51.7522 68.9733 49.6248 68.9733 46.8862C68.9733 46.4359 69.1586 46.0683 69.506 45.8248C71.0021 44.7864 75.4116 46.2613 82.4891 48.8207C85.9954 50.0889 89.6222 51.3984 91.9706 51.8487C94.6385 52.3587 108.187 55.3454 112.985 63.9562C113.106 64.1584 113.74 65.4036 113.972 66.1158C114.199 66.7085 114.384 67.3105 114.505 67.8894C114.644 68.4316 114.759 68.983 114.852 69.5252C114.871 69.6355 114.847 69.7457 114.792 69.8376L100.368 93.2853C100.331 93.3496 100.276 93.4002 100.211 93.4369C93.74 97.3472 86.4355 99.7733 78.4964 100.642C76.3287 100.881 74.1193 101 71.8821 101Z" fill="#AB2328"/>
<path d="M138.53 85.4969L135.566 78.6781C135.631 78.6827 135.7 78.6919 135.76 78.6919C137.669 78.6919 139.216 77.1572 139.216 75.2641C139.216 73.3756 137.669 71.8363 135.76 71.8363C134.626 71.8363 133.62 72.3877 132.99 73.2285C131.633 71.6709 129.892 71.2068 127.543 71.1792C127.543 71.1792 4.09458 71.1057 3.50633 71.1057C0.565089 71.1057 0 73.3618 0 73.3618C0.0416869 73.3618 2.8625 74.4048 2.8625 77.6212C2.8625 80.6079 2.8764 85.7818 2.8764 89.7793C2.8764 90.3261 2.83008 91.2451 3.81667 92.233C4.64577 93.0508 6.15577 93.0371 7.07288 93.0371C7.07288 93.0371 138.438 93.0417 138.892 93.0417C142.361 93.0417 143 91.1486 143 91.1486C143 91.1486 141.087 90.8729 138.53 85.4969Z" fill="#AB2328"/>
<path d="M135.872 73.4446C134.811 73.4446 133.945 74.3039 133.945 75.3561C133.945 76.4129 134.806 77.2676 135.872 77.2676C136.937 77.2676 137.798 76.4129 137.798 75.3561C137.794 74.3039 136.932 73.4446 135.872 73.4446ZM135.872 77.6949C134.57 77.6949 133.509 76.6427 133.509 75.3515C133.509 74.0603 134.565 73.0127 135.872 73.0127C137.173 73.0127 138.225 74.0603 138.225 75.3515C138.225 76.6427 137.168 77.6949 135.872 77.6949Z" fill="white"/>
<path d="M87.8806 74.9839L82.1927 83.2362V73.4813H78.8068V90.3261C80.025 90.3261 81.4192 90.0045 82.4289 88.6766L88.7978 79.542V90.0413H92.1651V73.4813C90.0993 73.4813 89.071 73.394 87.8806 74.9839Z" fill="white"/>
<path d="M104.254 79.6154H97.6353V73.4812H94.2633V88.8051C94.2633 89.7563 94.7265 90.0733 95.6761 90.0733H97.6353V83.1856H104.254V88.8051C104.254 89.7563 104.569 90.0733 105.523 90.0733H107.649V73.4858H104.254V79.6154Z" fill="white"/>
<path d="M24.7806 83.1809H31.3115V79.6107H24.7806V76.9411H33.067V74.9285C33.067 73.9544 32.7844 73.4812 31.9878 73.4812L21.3622 73.4766L21.2974 88.8005C21.2974 89.7516 21.7235 90.0687 22.6036 90.0687H22.6638V90.0779H31.9785C32.84 90.0779 33.1179 89.6 33.1179 88.6259V86.6087H24.7806V83.1809Z" fill="white"/>
<path d="M53.6233 83.1809H60.1635V79.6107H53.6233V76.9411H61.9143V74.9285C61.9143 73.9544 61.6271 73.4812 60.8258 73.4812L50.2003 73.4766L50.1401 88.8005C50.1401 89.7516 50.5709 90.0687 51.4416 90.0687H51.5019V90.0779H60.8166C61.6688 90.0779 61.956 89.6 61.956 88.6259V86.6087H53.6233V83.1809Z" fill="white"/>
<path d="M34.8734 76.3668C34.8734 77.033 35.6006 77.0652 35.6006 77.0652H36.0823H39.7925V88.6489C39.7925 89.6046 40.1028 89.9217 41.0292 89.9217H43.2988V77.0652H47.5138C47.977 77.0652 48.2503 76.8079 48.2503 76.33V73.4812H34.8873L34.8734 76.3668Z" fill="white"/>
<path d="M64.0079 81.5636C64.0079 83.6313 64.4433 90.8544 62.3775 91.415C67.7273 91.5896 67.4124 86.5766 67.4124 86.5766C67.4124 86.5766 67.2919 83.374 67.3753 81.4763C67.5745 77.1112 70.6037 76.9825 73.2485 77.0606H73.3875V90.0963L76.778 90.1284V73.5226C76.778 73.5226 73.8831 73.4812 73.7534 73.4812C65.8468 73.4812 64.0079 76.7206 64.0079 81.5636Z" fill="white"/>
<path d="M126.677 83.8886L128.924 78.3243L131.3 83.8886H126.677ZM125.626 87.4864H132.495L132.49 87.4956C134.7 92.2927 139.674 91.1945 139.674 91.1945C139.674 91.1945 138.252 90.9694 136.163 86.6823L131.281 74.754C130.536 73.2745 129.405 73.5226 127.335 73.5226L121.554 87.4864L116.89 81.7153L122.323 73.4858L118.192 73.4996L113.124 80.9709V73.4904H109.729V88.8144C109.729 89.7701 110.044 90.0871 110.998 90.0871H113.124V82.841C113.124 82.841 113.916 83.737 116.269 86.6042C120.225 91.4242 121.832 90.7488 124.144 90.712L125.626 87.4864Z" fill="white"/>
<path d="M15.3222 73.4675C19.1019 73.4675 18.7545 75.7144 18.7545 78.7379V90.0275H16.6516C16.6516 90.0275 16.0911 90.078 15.6511 89.6507C15.2898 89.2923 15.2945 88.5112 15.2945 88.5112V77.1205H8.93025V90.0275H6.52167C6.52167 90.0275 6.10944 90.0091 5.6972 89.6001C5.42392 89.329 5.43318 88.5112 5.43318 88.5112V75.4847C5.43318 74.0695 4.49754 73.6835 4.49754 73.6835C4.49754 73.6835 4.84493 73.4675 6.48925 73.4675H15.3222Z" fill="white"/>
</g>
<defs>
<clipPath id="clip0">
<rect width="143" height="101" fill="white"/>
</clipPath>
</defs>
</svg>
