<svg width="60" height="60" viewBox="0 0 60 60" fill="none" xmlns="http://www.w3.org/2000/svg">
<path fill-rule="evenodd" clip-rule="evenodd" d="M0 30C0 46.5685 13.4315 60 30 60C46.5685 60 60 46.5685 60 30C60 13.4315 46.5685 0 30 0C13.4315 0 0 13.4315 0 30ZM54.5455 30C54.5455 43.5561 43.5561 54.5455 30 54.5455C16.4439 54.5455 5.45455 43.5561 5.45455 30C5.45455 16.4439 16.4439 5.45455 30 5.45455C43.5561 5.45455 54.5455 16.4439 54.5455 30ZM32.7371 35.4506H35.4625V40.9051H24.5534V35.4506H27.2807V29.996H24.5534V24.5415H32.7371V35.4506ZM32.7291 19.0869C32.7291 20.5931 31.5076 21.8142 30.0009 21.8142C28.4942 21.8142 27.2727 20.5931 27.2727 19.0869C27.2727 17.5807 28.4942 16.3596 30.0009 16.3596C31.5076 16.3596 32.7291 17.5807 32.7291 19.0869Z" fill="#7AA92E"/>
</svg>
