<svg width="17" height="21" viewBox="0 0 17 21" fill="none" xmlns="http://www.w3.org/2000/svg">
<path d="M2.29997 2.44721C1.38796 4.27156 2.79997 5.28055 3.29997 5.44722H9.29997C8.46664 4.28055 6.6999 1.84721 6.2999 1.44721C5.7999 0.947215 3.2998 0.447205 2.29997 2.44721Z" stroke="#7AA92E"/>
<path d="M15.0001 2.44721C15.9121 4.27156 14.5001 5.28055 14.0001 5.44722H8.00008C8.83341 4.28055 10.6001 1.84721 11.0001 1.44721C11.5001 0.947215 14.0002 0.447205 15.0001 2.44721Z" stroke="#7AA92E"/>
<rect x="7" y="7" width="3" height="14" fill="#7AA92E"/>
<rect x="1" y="14" width="5" height="7" fill="#7AA92E"/>
<rect y="7" width="6" height="6" fill="#7AA92E"/>
<rect x="11" y="7" width="6" height="6" fill="#7AA92E"/>
<rect x="11" y="14" width="5" height="7" fill="#7AA92E"/>
</svg>
