<svg width="57" height="57" viewBox="0 0 57 57" fill="none" xmlns="http://www.w3.org/2000/svg">
<path fill-rule="evenodd" clip-rule="evenodd" d="M23.937 21.4257C24.0079 21.3272 24.0866 21.2066 24.1869 21.044C24.2236 20.9846 24.3236 20.8197 24.398 20.6969L24.4818 20.5587C25.3108 19.2027 25.9134 18.5803 27 18.5803H32V20.5803H27C26.9133 20.5803 26.6405 20.862 26.1882 21.6019L26.1154 21.7219L26.1152 21.7222C26.0402 21.846 25.931 22.0262 25.8889 22.0944C25.7659 22.2936 25.6637 22.4502 25.5606 22.5936C25.1124 23.2167 24.6643 23.5803 24 23.5803H21C20.4477 23.5803 20 24.028 20 24.5803V33.5803C20 34.1326 20.4477 34.5803 21 34.5803H37C37.5523 34.5803 38 34.1326 38 33.5803V27.5803H40V33.5803C40 35.2372 38.6569 36.5803 37 36.5803H21C19.3431 36.5803 18 35.2372 18 33.5803V24.5803C18 22.9235 19.3431 21.5803 21 21.5803H23.8162C23.8495 21.5423 23.8903 21.4907 23.937 21.4257ZM34 23.5803V21.5803H36V19.5803H38V21.5803H40V23.5803H38V25.5803H36V23.5803H34ZM29 33.5803C26.2386 33.5803 24 31.3417 24 28.5803C24 25.8189 26.2386 23.5803 29 23.5803C31.7614 23.5803 34 25.8189 34 28.5803C34 31.3417 31.7614 33.5803 29 33.5803ZM29 31.5803C30.6569 31.5803 32 30.2372 32 28.5803C32 26.9235 30.6569 25.5803 29 25.5803C27.3431 25.5803 26 26.9235 26 28.5803C26 30.2372 27.3431 31.5803 29 31.5803Z" fill="#7AA92E"/>
<path d="M37.7057 11.2964C47.1726 16.4307 50.6849 28.2673 45.5507 37.7342C40.4164 47.2011 28.5798 50.7134 19.1129 45.5792C9.64594 40.4449 6.13364 28.6083 11.2679 19.1414C14.4256 13.319 20.1184 9.749 26.236 9.05756M26.236 9.05756L19 6.08032M26.236 9.05756L22.1837 16.5294" stroke="#7AA92E" stroke-width="2"/>
</svg>
