<svg width="20" height="15" viewBox="0 0 20 15" fill="none" xmlns="http://www.w3.org/2000/svg">
<path d="M18.2422 0H1.75781C0.789844 0 0 0.776923 0 1.73077V13.2692C0 14.22 0.786328 15 1.75781 15H18.2422C19.2078 15 20 14.2258 20 13.2692V1.73077C20 0.78 19.2137 0 18.2422 0ZM17.9996 1.15385L10.0371 8.99346L2.00625 1.15385H17.9996ZM1.17188 13.0304V1.96423L6.81562 7.47346L1.17188 13.0304ZM2.00039 13.8462L7.64766 8.28577L9.62656 10.2173C9.85547 10.4408 10.2254 10.4404 10.4535 10.2154L12.3828 8.31577L17.9996 13.8462H2.00039ZM18.8281 13.0304L13.2113 7.5L18.8281 1.96962V13.0304Z" fill="white"/>
</svg>
