<svg width="28" height="28" viewBox="0 0 28 28" fill="none" xmlns="http://www.w3.org/2000/svg">
<path d="M20.1232 28C19.2192 28 18.3234 27.8403 17.4468 27.522C13.5858 26.1198 10.0027 23.8355 7.0835 20.9163C4.16428 17.9971 1.88053 14.4134 0.477792 10.553C0.0271674 9.31219 -0.105723 8.03141 0.0824018 6.74625C0.259042 5.54203 0.725527 4.37336 1.431 3.36602C2.13975 2.3543 3.08475 1.51266 4.16373 0.932422C5.31545 0.313906 6.57107 0 7.89779 0C8.31014 0 8.6667 0.288203 8.7531 0.691797L10.1263 7.10063C10.1887 7.39102 10.0995 7.69289 9.88951 7.90289L7.54287 10.2495C9.75662 14.6508 13.349 18.2432 17.7503 20.457L20.0969 18.1103C20.3069 17.9003 20.6088 17.8112 20.8992 17.8735L27.308 19.2467C27.7116 19.3331 27.9998 19.6897 27.9998 20.102C27.9998 21.4287 27.6859 22.6844 27.0674 23.835C26.4872 24.914 25.6455 25.859 24.6338 26.5677C23.6265 27.2738 22.4578 27.7397 21.2536 27.9163C20.8762 27.9721 20.4989 28 20.1232 28Z" fill="#AB2328"/>
</svg>
