<svg width="150" height="98" viewBox="0 0 150 98" fill="none" xmlns="http://www.w3.org/2000/svg">
<path d="M143.442 17.5164H134.856C136.209 15.6437 136.924 13.4333 136.924 11.1122C136.924 5.08886 132.048 0.187642 126.055 0.187642C122.445 0.187642 119.78 1.488 117.675 4.28012C115.935 6.58812 114.626 9.88875 113.125 13.7148C111.624 9.88875 110.313 6.58812 108.573 4.282C106.468 1.488 103.803 0.187642 100.193 0.187642C94.2001 0.187642 89.3238 5.08886 89.3238 11.1122C89.3238 11.1403 89.3257 11.1666 89.3257 11.1947C85.3604 11.3036 82.3976 12.8197 80.0378 15.9459C77.988 18.6648 76.487 22.4589 74.607 27.2551C72.727 22.4589 71.2261 18.6648 69.1762 15.9459C66.9751 13.028 64.2476 11.5137 60.6706 11.2341C60.6743 11.1309 60.6762 11.0277 60.6762 10.9245C60.6762 4.90122 55.7998 0 49.8071 0C46.1965 0 43.5324 1.30036 41.4266 4.09248C39.6866 6.40048 38.376 9.70111 36.8751 13.5253C35.3741 9.70111 34.0635 6.39861 32.3235 4.09248C30.2177 1.30036 27.5555 0 23.9449 0C17.9521 0 13.0758 4.90122 13.0758 10.9245C13.0758 13.2457 13.7908 15.4561 15.1443 17.3288H6.55843C2.94224 17.3288 0 20.2879 0 23.9225V28.2552C0 31.0173 1.72875 33.4979 4.31068 34.4474V67.5363C4.31068 71.1709 7.25292 74.1281 10.8691 74.1281H36.4811V90.3705C36.4811 94.5774 39.8864 98 44.072 98H105.142C109.328 98 112.733 94.5774 112.733 90.3705V74.3158H139.129C142.745 74.3158 145.687 71.3585 145.687 67.7239V34.635C148.269 33.6856 149.998 31.2049 149.998 28.4428V24.1102C150 20.4755 147.058 17.5164 143.442 17.5164ZM93.8212 11.1122C93.8212 7.58075 96.6794 4.70795 100.193 4.70795C104.55 4.70795 105.797 7.35746 109.081 15.7301C109.303 16.2986 109.539 16.8953 109.785 17.5164H100.727C99.2034 14.8894 96.7728 12.861 93.866 11.8628C93.838 11.6169 93.8212 11.3674 93.8212 11.1122ZM102.444 23.9C102.444 23.2677 102.396 22.6447 102.308 22.0367H104.412V30.5144H100.592C101.765 28.5854 102.444 26.3225 102.444 23.9ZM121.84 35.0347H141.194V67.722C141.194 68.8648 140.27 69.7936 139.133 69.7936H121.842V35.0347H121.84ZM145.503 24.1102V28.4428C145.503 29.5856 144.579 30.5144 143.442 30.5144H121.84V22.0367H143.442C144.579 22.0367 145.503 22.9674 145.503 24.1102ZM132.429 11.1122C132.429 14.6436 129.57 17.5164 126.057 17.5164H116.465C116.711 16.8953 116.945 16.2967 117.169 15.7301C120.453 7.35558 121.7 4.70795 126.057 4.70795C129.57 4.70795 132.429 7.58075 132.429 11.1122ZM100.497 30.6701C100.464 30.9741 100.443 31.2612 100.436 31.5314H99.9073C100.115 31.2537 100.311 30.9647 100.497 30.6701ZM108.908 22.0367H117.342V36.564C116.282 33.6311 113.483 31.5314 110.203 31.5314H108.908V22.0367ZM117.342 46.8449V69.7955H112.735V51.4422C114.87 50.6803 116.569 48.984 117.342 46.8449ZM79.2519 29.2835C83.1276 19.3985 84.6024 16.2705 89.7905 16.2705C90.0799 16.2705 90.3637 16.2892 90.6437 16.3193C90.7221 16.4637 90.8024 16.6064 90.8864 16.7471L90.9051 16.779L90.9424 16.7884C91.8721 17.0342 92.8317 17.2237 93.7689 17.4038C95.9345 18.7492 97.3814 21.1567 97.3814 23.8981C97.3814 28.1051 93.9761 31.5277 89.7905 31.5277H78.367C78.6769 30.749 78.9737 29.9946 79.2519 29.2835ZM59.4254 16.2705C64.6135 16.2705 66.0865 19.3985 69.964 29.2835C70.2441 29.9965 70.539 30.749 70.8489 31.5314H59.4254C55.2398 31.5314 51.8345 28.1088 51.8345 23.9019C51.8345 21.1267 53.3169 18.6929 55.5291 17.3569C55.6841 17.3269 55.839 17.2969 55.994 17.2669C57.0059 17.0717 58.0495 16.8709 59.0595 16.6045L59.0968 16.5951L59.1155 16.5632C59.1715 16.4694 59.2275 16.3737 59.2816 16.2761C59.3264 16.2742 59.375 16.2705 59.4254 16.2705ZM28.1622 34.8471V69.6078H10.8691C9.73216 69.6078 8.80805 68.679 8.80805 67.5363V34.8489H28.1622V34.8471ZM33.5352 17.3288H23.943C20.4295 17.3288 17.5713 14.456 17.5713 10.9245C17.5713 7.39311 20.4295 4.52031 23.943 4.52031C28.3004 4.52031 29.5475 7.16982 32.8313 15.5424C33.0554 16.111 33.2906 16.7096 33.5352 17.3288ZM28.1622 21.8491V30.3268H6.55843C5.42148 30.3268 4.49737 29.3979 4.49737 28.2552V23.9225C4.49737 22.7798 5.42148 21.851 6.55843 21.851H28.1622V21.8491ZM40.9188 15.5424C44.2026 7.16794 45.4497 4.52031 49.8071 4.52031C53.3206 4.52031 56.1788 7.39311 56.1788 10.9245C56.1788 11.1591 56.1658 11.3918 56.1415 11.6207C52.9584 12.482 50.2663 14.5611 48.5955 17.3307H40.2149C40.4614 16.7096 40.6966 16.111 40.9188 15.5424ZM45.5898 30.3268V21.8491H46.9395C46.8312 22.5171 46.7734 23.202 46.7734 23.9C46.7734 26.2437 47.4081 28.4391 48.5133 30.3268H45.5898ZM36.4811 69.6078H32.6596V48.4192C33.5632 49.804 34.9036 50.8792 36.4811 51.4403V69.6078ZM32.6577 34.9916V21.8491H41.0924V31.5314H39.0108C36.3561 31.5314 34.015 32.9106 32.6577 34.9916ZM64.4847 92.913H44.072C42.6774 92.913 41.5423 91.7721 41.5423 90.3705V51.8794H64.4865V92.913H64.4847ZM64.4847 46.7924H39.0108C37.6162 46.7924 36.4811 45.6515 36.4811 44.2498V39.161C36.4811 37.7593 37.6162 36.6184 39.0108 36.6184H64.4847V46.7924ZM79.6682 92.913H69.5458V36.6184C70.076 36.6184 76.7596 36.6184 79.6682 36.6184V92.913ZM107.674 90.3686C107.674 91.7703 106.539 92.9111 105.144 92.9111H84.7294V51.8794H107.674V90.3686ZM84.7294 46.7924V36.6184H110.203C111.598 36.6184 112.733 37.7593 112.733 39.161V44.248C112.733 45.6496 111.598 46.7905 110.203 46.7905H84.7294V46.7924Z" fill="#AB2328"/>
</svg>
