<svg width="15" height="10" viewBox="0 0 15 10" fill="none" xmlns="http://www.w3.org/2000/svg">
<path d="M14.3613 0.963068C13.9541 0.261364 13.5117 0.133523 12.6152 0.0823864C11.7158 0.0255682 9.45703 0 7.50293 0C5.54297 0 3.28125 0.0255682 2.38477 0.0823864C1.48828 0.133523 1.0459 0.261364 0.635742 0.963068C0.216797 1.66477 0 2.87216 0 4.99716C0 5 0 5 0 5C0 5.00284 0 5.00284 0 5.00284V5.00568C0 7.12216 0.216797 8.33807 0.635742 9.03125C1.0459 9.73295 1.48828 9.8608 2.38477 9.92045C3.28418 9.97159 5.54297 10 7.50293 10C9.45996 10 11.7188 9.96875 12.6182 9.92045C13.5176 9.8608 13.96 9.73295 14.3643 9.03125C14.7861 8.33807 15 7.12216 15 5.00568C15 5.00568 15 5.00284 15 5V4.99716C15 2.87216 14.7861 1.66477 14.3613 0.963068ZM5.625 7.72727V2.27273L10.3125 5L5.625 7.72727Z" fill="white"/>
</svg>
