<svg width="14" height="14" viewBox="0 0 14 14" fill="none" xmlns="http://www.w3.org/2000/svg">
<path d="M6.71659 3.22287C4.82076 3.22287 3.24994 4.76661 3.24994 6.68952C3.24994 8.61243 4.79368 10.1562 6.71659 10.1562C8.6395 10.1562 10.1832 8.58534 10.1832 6.68952C10.1832 4.7937 8.61241 3.22287 6.71659 3.22287ZM6.71659 8.91034C5.49785 8.91034 4.49577 7.90826 4.49577 6.68952C4.49577 5.47078 5.49784 4.4687 6.71659 4.4687C7.93533 4.4687 8.93741 5.47078 8.93741 6.68952C8.93741 7.90826 7.93533 8.91034 6.71659 8.91034Z" fill="white"/>
<path d="M10.3186 3.92704C10.7524 3.92704 11.104 3.5754 11.104 3.14163C11.104 2.70786 10.7524 2.35622 10.3186 2.35622C9.88484 2.35622 9.5332 2.70786 9.5332 3.14163C9.5332 3.5754 9.88484 3.92704 10.3186 3.92704Z" fill="white"/>
<path d="M12.3499 1.11041C11.6458 0.379164 10.6437 -1.96275e-07 9.5062 -1.75299e-07L3.92706 -7.2417e-08C1.57083 -2.89668e-08 2.89668e-08 1.57083 7.2417e-08 3.92706L1.748e-07 9.47912C1.96275e-07 10.6437 0.379165 11.6458 1.13749 12.377C1.86874 13.0812 2.84374 13.4333 3.95415 13.4333L9.47912 13.4333C10.6437 13.4333 11.6187 13.0541 12.3229 12.377C13.0541 11.6729 13.4333 10.6708 13.4333 9.5062L13.4333 3.92706C13.4333 2.78957 13.0541 1.81457 12.3499 1.11041ZM12.2416 9.5062C12.2416 10.3458 11.9437 11.0229 11.4562 11.4833C10.9687 11.9437 10.2916 12.1874 9.47912 12.1874L3.95415 12.1874C3.14165 12.1874 2.46457 11.9437 1.97707 11.4833C1.48958 10.9958 1.24583 10.3187 1.24583 9.47912L1.24583 3.92706C1.24583 3.11457 1.48958 2.43749 1.97707 1.94999C2.43749 1.48958 3.14165 1.24583 3.95415 1.24583L9.53329 1.24583C10.3458 1.24583 11.0229 1.48958 11.5104 1.97707C11.9708 2.46457 12.2416 3.14165 12.2416 3.92706L12.2416 9.5062Z" fill="white"/>
</svg>
