<svg width="9" height="15" viewBox="0 0 9 15" fill="none" xmlns="http://www.w3.org/2000/svg">
<path d="M4.04128 7.34502C4.76764 7.34502 5.47768 7.12963 6.08162 6.72609C6.68556 6.32255 7.15628 5.74898 7.43424 5.07792C7.7122 4.40686 7.78493 3.66844 7.64323 2.95604C7.50152 2.24364 7.15175 1.58926 6.63814 1.07565C6.12453 0.562045 5.47015 0.212273 4.75775 0.0705679C4.04536 -0.0711367 3.30694 0.00159124 2.63588 0.279555C1.96481 0.557518 1.39124 1.02823 0.987704 1.63217C0.584163 2.23612 0.368774 2.94616 0.368774 3.67251C0.368774 4.64652 0.755698 5.58064 1.44443 6.26937C2.13316 6.9581 3.06727 7.34502 4.04128 7.34502ZM4.04128 2.20351C4.33183 2.20351 4.61584 2.28966 4.85742 2.45108C5.09899 2.6125 5.28728 2.84192 5.39847 3.11035C5.50965 3.37877 5.53874 3.67414 5.48206 3.9591C5.42538 4.24406 5.28547 4.50581 5.08003 4.71125C4.87458 4.9167 4.61283 5.05661 4.32787 5.11329C4.04291 5.16997 3.74755 5.14088 3.47912 5.02969C3.2107 4.91851 2.98127 4.73022 2.81985 4.48865C2.65844 4.24707 2.57228 3.96305 2.57228 3.67251C2.57272 3.28304 2.72763 2.90965 3.00302 2.63425C3.27842 2.35886 3.65181 2.20394 4.04128 2.20351Z" fill="white"/>
<path d="M5.38452 10.319C6.20395 10.1624 6.98794 9.85766 7.698 9.41972C7.813 9.34838 7.91279 9.25503 7.99164 9.14504C8.0705 9.03504 8.12686 8.91056 8.1575 8.77874C8.18814 8.64691 8.19245 8.51034 8.1702 8.37684C8.14794 8.24335 8.09955 8.11556 8.0278 8.0008C7.95605 7.88605 7.86235 7.78659 7.75208 7.70813C7.6418 7.62966 7.51713 7.57374 7.38519 7.54357C7.25326 7.51339 7.11667 7.50956 6.98326 7.53229C6.84984 7.55502 6.72222 7.60386 6.60772 7.67601C5.8477 8.13923 4.9765 8.38817 4.08649 8.39644C3.19647 8.40472 2.32079 8.17202 1.55229 7.72302C1.31848 7.58471 1.03945 7.54451 0.776111 7.61119C0.512768 7.67787 0.286497 7.84601 0.146687 8.07893C0.00687708 8.31184 -0.0351175 8.5906 0.0298701 8.85437C0.0948577 9.11813 0.26155 9.34548 0.49356 9.48678C1.17481 9.8892 1.92048 10.1709 2.69765 10.3193L0.37593 12.6411C0.280157 12.7365 0.204147 12.8499 0.152251 12.9748C0.100354 13.0996 0.0735912 13.2335 0.0734926 13.3687C0.073394 13.5039 0.099962 13.6378 0.151676 13.7628C0.20339 13.8877 0.279234 14.0012 0.374868 14.0968C0.470502 14.1924 0.584048 14.2682 0.709007 14.3198C0.833966 14.3715 0.967885 14.398 1.1031 14.3978C1.23831 14.3976 1.37217 14.3708 1.497 14.3188C1.62183 14.2669 1.73519 14.1908 1.83059 14.095L4.04126 11.8843L6.25195 14.095C6.34735 14.1908 6.46071 14.2669 6.58554 14.3189C6.71037 14.3708 6.84422 14.3976 6.97944 14.3978C7.11465 14.398 7.24857 14.3715 7.37353 14.3198C7.49849 14.2682 7.61203 14.1924 7.70767 14.0968C7.8033 14.0012 7.87915 13.8877 7.93086 13.7628C7.98257 13.6378 8.00914 13.5039 8.00904 13.3687C8.00894 13.2335 7.98218 13.0996 7.93028 12.9748C7.87839 12.8499 7.80238 12.7365 7.7066 12.6411L5.38452 10.319Z" fill="white"/>
</svg>
