<svg width="32" height="32" viewBox="0 0 32 32" fill="none" xmlns="http://www.w3.org/2000/svg">
<path fill-rule="evenodd" clip-rule="evenodd" d="M32 16.1992V16V15.8008C24.948 15.6017 21.6882 15.4025 19.0936 12.8797C16.5655 10.2905 16.3659 7.10373 16.1663 0H16.0333H15.8337C15.6341 7.03734 15.4345 10.2905 12.9064 12.8797C10.3119 15.4025 7.1185 15.6017 0 15.8008V16V16.1992C7.05198 16.3983 10.3119 16.5975 12.9064 19.1203C15.4345 21.7095 15.6341 24.8963 15.8337 32H16.0333H16.2328C16.4324 24.9627 16.632 21.7095 19.1601 19.1203C21.6882 16.5975 24.948 16.3983 32 16.1992Z" fill="white"/>
</svg>
