<svg width="108" height="98" viewBox="0 0 108 98" fill="none" xmlns="http://www.w3.org/2000/svg">
<path d="M50.8482 35.0432H24.5236C23.1414 35.0432 22.0105 36.1723 22.0105 37.5523C22.0105 38.9323 23.1204 40.0613 24.5236 40.0613H50.8482C52.2304 40.0613 53.3613 38.9323 53.3613 37.5523C53.3613 36.1723 52.2304 35.0432 50.8482 35.0432Z" fill="#AB2328"/>
<path d="M44.2513 48.7803C45.6335 48.7803 46.7644 47.6513 46.7644 46.2713C46.7644 44.8913 45.6335 43.7622 44.2513 43.7622H24.5236C23.1414 43.7622 22.0105 44.8913 22.0105 46.2713C22.0105 47.6513 23.1204 48.7803 24.5236 48.7803H44.2513Z" fill="#AB2328"/>
<path d="M50.8482 14.908H24.5236C23.1414 14.908 22.0105 16.037 22.0105 17.417C22.0105 18.797 23.1204 19.9261 24.5236 19.9261H50.8482C52.2304 19.9261 53.3613 18.797 53.3613 17.417C53.3613 16.037 52.2304 14.908 50.8482 14.908Z" fill="#AB2328"/>
<path d="M44.2513 28.6243C45.6335 28.6243 46.7644 27.4953 46.7644 26.1153C46.7644 24.7353 45.6335 23.6062 44.2513 23.6062H24.5236C23.1414 23.6062 22.0105 24.7353 22.0105 26.1153C22.0105 27.4953 23.1204 28.6243 24.5236 28.6243H44.2513Z" fill="#AB2328"/>
<path d="M64 19.9261H70.5759C71.9581 19.9261 73.089 18.797 73.089 17.417C73.089 16.037 71.9581 14.908 70.5759 14.908H64C62.6178 14.908 61.4869 16.037 61.4869 17.417C61.4869 18.797 62.5969 19.9261 64 19.9261Z" fill="#AB2328"/>
<path d="M64 28.6243H70.5759C71.9581 28.6243 73.089 27.4953 73.089 26.1153C73.089 24.7353 71.9581 23.6062 70.5759 23.6062H64C62.6178 23.6062 61.4869 24.7353 61.4869 26.1153C61.4869 27.4953 62.5969 28.6243 64 28.6243Z" fill="#AB2328"/>
<path d="M50.8482 55.4294H24.5236C23.1414 55.4294 22.0105 56.5585 22.0105 57.9385C22.0105 59.3185 23.1204 60.4476 24.5236 60.4476H50.8482C52.2304 60.4476 53.3613 59.3185 53.3613 57.9385C53.3613 56.5585 52.2304 55.4294 50.8482 55.4294Z" fill="#AB2328"/>
<path d="M44.2513 64.1277H24.5236C23.1414 64.1277 22.0105 65.2568 22.0105 66.6368C22.0105 68.0167 23.1204 69.1458 24.5236 69.1458H44.2513C45.6335 69.1458 46.7644 68.0167 46.7644 66.6368C46.7644 65.2568 45.6335 64.1277 44.2513 64.1277Z" fill="#AB2328"/>
<path d="M108 57.144C108 44.9604 98.7393 34.9367 86.8607 33.7072C86.6576 33.6863 86.4545 33.6675 86.2513 33.6529C86.4545 33.6696 86.6576 33.6863 86.8607 33.7072L86.8482 5.08086H92.5654C93.9476 5.08086 95.0785 3.95178 95.0785 2.57179C95.0785 1.19181 93.9476 0 92.5654 0H2.51309C1.13089 0 0 1.12908 0 2.50907C0 3.88905 1.13089 5.01814 2.51309 5.01814H7.93717V95.4282C7.93717 96.3482 8.43979 97.2055 9.25654 97.6445C10.0733 98.0836 11.0576 98.0418 11.8325 97.5191L22.7435 90.2637L33.6963 97.54C34.534 98.1045 35.644 98.1045 36.4817 97.54L47.3927 90.2846L58.3456 97.5609C59.1832 98.1255 60.2932 98.1255 61.1309 97.5609L72.0419 90.3055L82.9948 97.5818C83.4136 97.8536 83.8953 98 84.377 98C84.7749 98 85.1937 97.8955 85.5707 97.7073C86.3874 97.2682 86.89 96.4109 86.89 95.4909L86.8838 80.5787C98.7497 79.3388 108 69.3193 108 57.144ZM73.445 85.141C72.6073 84.5765 71.4974 84.5765 70.6597 85.141L59.7487 92.4173L48.7958 85.141C47.9581 84.5765 46.8482 84.5765 46.0105 85.141L35.0995 92.3964L24.1466 85.141C23.3089 84.5765 22.199 84.5765 21.3613 85.141L12.9634 90.7237V4.99723H81.8639L81.8702 33.7135C70.023 34.9722 60.7958 44.9813 60.7958 57.144C60.7958 69.3088 70.0293 79.3221 81.8827 80.5745L81.8848 90.7446L73.445 85.141ZM84.3979 70.2957C83.0157 70.2957 81.8848 69.1666 81.8848 67.7866V60.4476H81.8764H74.534C73.1309 60.4476 72.0209 59.3185 72.0209 57.9386C72.0209 56.5586 73.1518 55.4295 74.534 55.4295H81.8764H81.8848V48.0905C81.8848 46.6896 83.0157 45.5814 84.3979 45.5814C85.6251 45.5814 86.6534 46.4721 86.867 47.6388C86.8942 47.7852 86.911 47.9357 86.911 48.0905V55.4295H94.2618C95.644 55.4295 96.7749 56.5586 96.7749 57.9386C96.7749 59.3185 95.644 60.4476 94.2618 60.4476H86.911V67.7866C86.911 67.9184 86.8984 68.048 86.8775 68.1755C86.689 69.3715 85.6482 70.2957 84.3979 70.2957Z" fill="#AB2328"/>
</svg>
