<svg width="22" height="22" viewBox="0 0 22 22" fill="none" xmlns="http://www.w3.org/2000/svg">
<path d="M0 22L1.54057 16.534C0.550104 14.8524 0.0282989 12.9391 0.0282989 10.9741C0.0282989 4.92275 4.95646 0 11.0145 0C17.0725 0 22.0007 4.92275 22.0007 10.9741C22.0007 17.0255 17.0725 21.9483 11.0145 21.9483C9.12676 21.9483 7.27904 21.4657 5.64391 20.5494L0 22ZM5.93174 18.5527L6.26787 18.7575C7.69317 19.6269 9.33451 20.0861 11.0138 20.0861C16.0441 20.0861 20.1364 15.9982 20.1364 10.9735C20.1364 5.94867 16.0441 1.86154 11.0145 1.86154C5.98488 1.86154 1.89189 5.94936 1.89189 10.9741C1.89189 12.7247 2.39023 14.4249 3.33237 15.8907L3.55877 16.243L2.67114 19.3904L5.93174 18.5527Z" fill="white"/>
<path d="M7.92801 5.86663L7.21501 5.82802C6.99138 5.81561 6.7712 5.89076 6.6021 6.03761C6.2563 6.33753 5.70413 6.91667 5.53433 7.67232C5.28102 8.79821 5.67238 10.1771 6.68493 11.5561C7.69747 12.935 9.58384 15.1413 12.9197 16.0837C13.995 16.3871 14.8405 16.1823 15.4928 15.7659C16.0098 15.4357 16.3659 14.9055 16.4943 14.3063L16.6082 13.7754C16.6441 13.6065 16.5585 13.4355 16.4018 13.3631L13.9929 12.2538C13.8363 12.1821 13.6513 12.2276 13.5457 12.3634L12.6001 13.5879C12.5283 13.6803 12.4061 13.7168 12.2957 13.6782C11.6483 13.4507 9.47824 12.5434 8.28761 10.2523C8.23584 10.153 8.24896 10.0323 8.32212 9.94754L9.22631 8.90301C9.3188 8.79614 9.34226 8.64653 9.28636 8.51691L8.24758 6.09001C8.19236 5.96039 8.06881 5.87421 7.92801 5.86663Z" fill="white"/>
</svg>
